<svg id="Layer_1" data-name="Layer 1" xmlns="http://www.w3.org/2000/svg" viewBox="0 0 225.96 64.8"><defs><style>.cls-1{fill:#0072bc;}</style></defs><title>UNHCR-visibility-horizontal-Blue-CMYK-v2016</title><path class="cls-1" d="M63.11,77.48c.64,0,.56-.36.56-1v-3.3c0-.68-.06-.9.33-.9,1.36,0,1.73-.13,1.73-1.33V58.63c0-3.34-2.36-2.79-3-4-.95-1.65,1.77-1.65.78-5.23a2.35,2.35,0,0,0-4.22,0C58.27,53,61,53,60,54.62c-.67,1.22-3,.67-3,4V70.9c0,1.21.37,1.33,1.73,1.33.38,0,.32.22.32.9v3.3c0,.68-.08,1,.56,1h3.48" transform="translate(-30.08 -30.24)"/><path class="cls-1" d="M52.37,50.87c-1.21,1.28-3.11,4.28-1.87,6.77,2.53,1,2.34-8,5.49-7.86,1.56,1.44-.47,5.69-1.09,7.55-.78,2.3-1.4,7.13-2.88,9.46-1.24,1.95-.31,8.06-.7,10.16-1,1-3.89.31-5.1.11,0-2.41-.31-4.32-.7-8.17,0-.78-.86-12.69-.2-14.13,1.36-3,8.8-8.72,9.81-9.81s4-4.2,5.25-4.2c.85.59.35,1.95.16,2.49-1.21,3-6.42,6-8.18,7.63" transform="translate(-30.08 -30.24)"/><path class="cls-1" d="M70.51,50.87c1.16,1.28,3.08,4.28,1.87,6.77-2.57,1-2.37-8-5.53-7.86-1.51,1.44.51,5.69,1.13,7.55.78,2.3,1.4,7.13,2.88,9.46,1.21,1.95.31,8.06.66,10.16,1.09,1,3.89.31,5.14.11a81.5,81.5,0,0,1,.66-8.17c.08-.78.89-12.69.23-14.13-1.36-3-8.8-8.72-9.81-9.81s-4-4.2-5.26-4.2c-.89.59-.35,1.95-.15,2.49,1.21,3,6.42,6,8.18,7.63" transform="translate(-30.08 -30.24)"/><path class="cls-1" d="M41.56,46.83c-.66.63-2.15,1.05-3.16,2.41-.39-.74.62-2.53,1.83-3.58a15,15,0,0,1,3.15-2.07c.39.9-1,2.26-1.83,3.24" transform="translate(-30.08 -30.24)"/><path class="cls-1" d="M39.49,51.71c-1.13,1-2.34,1.48-3.9,3.39a11.54,11.54,0,0,1-.2-5.7c.55-1.79,1.44-3.78,3-4.41a16.78,16.78,0,0,0-.94,4.33c-.66,2.61-1.05,2.69-.9,3,.15,0,1-1.37,2.07-2.42,1.25-1.25,2.81-1.52,3.82-2.26a13.17,13.17,0,0,1-2.92,4" transform="translate(-30.08 -30.24)"/><path class="cls-1" d="M34,62.51a14.13,14.13,0,0,1-1.8-7c.08-1.6.86-5.3,2-5.84-.35,3.35.55,3.66.2,6.43,0,.16-.39,3-.39,3.2.47-.08,0-2.65,5.38-6.36-1.16,2-.62,2.65-2.73,5.34A9.64,9.64,0,0,0,34,62.51" transform="translate(-30.08 -30.24)"/><path class="cls-1" d="M36.14,65.08a7.51,7.51,0,0,0-1.21,3.23c-2.69-1.56-5.73-7.76-4.6-10.84.71,2.34,1.68,2.85,2.38,4.8,1.21,2.92,1,3.82,1.79,4.48a10.85,10.85,0,0,1,.86-4.64A27.6,27.6,0,0,1,37.23,59c.58,2.15.15,3.9-1.09,6.09" transform="translate(-30.08 -30.24)"/><path class="cls-1" d="M38.56,70.39a33.79,33.79,0,0,1-.63,5.19c-4.64-1.52-7.06-6.82-7.06-9.44,1.41,3.2,3.47,3.16,6.17,7.68.23-1.72-.47-.43-.55-3.67.08-3.39.78-3.51.89-5.62.86.93,1.17,4.68,1.17,5.85" transform="translate(-30.08 -30.24)"/><path class="cls-1" d="M42.41,77.13c.35,1.75.51,3.82.78,5.35-2.65-1-3.32-.23-6.47-2.22-1.45-.78-4-4.05-3.86-6.4C36,77.33,36.53,76.94,38,78.22c1.4,1.13,2.53,2.81,3.55,2.58.07-.94-2.3-3-2-8.81a16.26,16.26,0,0,1,2.81,5.15" transform="translate(-30.08 -30.24)"/><path class="cls-1" d="M47.68,81.5c.82,1.17.63,1.67,2.73,4.09a23.07,23.07,0,0,1-5.51,1.09c-1.32,0-6-1.25-7.56-4.45,2.69,1.44,2.73,1.09,6.31,1.87,2.58.58,4.41,1.4,5.11,1.33-.16-.35-2.14-1.17-3.51-2.89s-1.06-3.9-2.27-5.42c.82-.23,4,3.51,4.68,4.37" transform="translate(-30.08 -30.24)"/><path class="cls-1" d="M81.1,46.83c.62.63,2.15,1.05,3.12,2.41.43-.74-.62-2.53-1.83-3.58a13,13,0,0,0-3.16-2.07c-.39.9,1,2.26,1.87,3.24" transform="translate(-30.08 -30.24)"/><path class="cls-1" d="M83.17,51.71c1.09,1,2.3,1.48,3.86,3.39a11.54,11.54,0,0,0,.2-5.7c-.51-1.79-1.45-3.78-3-4.41a15.3,15.3,0,0,1,.94,4.33c.66,2.61,1.05,2.69.9,3-.16,0-1-1.37-2.07-2.42-1.21-1.25-2.77-1.52-3.82-2.26a13.82,13.82,0,0,0,3,4" transform="translate(-30.08 -30.24)"/><path class="cls-1" d="M88.63,62.51a13.78,13.78,0,0,0,1.8-7c-.08-1.6-.86-5.3-2-5.84.31,3.35-.59,3.66-.2,6.43,0,.16.35,3,.35,3.2-.43-.08,0-2.65-5.34-6.36,1.13,2,.58,2.65,2.69,5.34a9.22,9.22,0,0,1,2.69,4.25" transform="translate(-30.08 -30.24)"/><path class="cls-1" d="M86.52,65.08a7.83,7.83,0,0,1,1.17,3.23c2.69-1.56,5.77-7.76,4.6-10.84-.66,2.34-1.68,2.85-2.34,4.8-1.25,2.92-1.06,3.82-1.8,4.48a11,11,0,0,0-.9-4.64A22.78,22.78,0,0,0,85.39,59a7.45,7.45,0,0,0,1.13,6.09" transform="translate(-30.08 -30.24)"/><path class="cls-1" d="M84.07,70.39a32.73,32.73,0,0,0,.66,5.19c4.61-1.52,7.06-6.82,7.06-9.44-1.45,3.2-3.47,3.16-6.2,7.68-.23-1.72.46-.43.54-3.67-.08-3.39-.78-3.51-.9-5.62-.85.93-1.17,4.68-1.17,5.85" transform="translate(-30.08 -30.24)"/><path class="cls-1" d="M80.21,77.13c-.35,1.75-.47,3.82-.74,5.35,2.61-1,3.28-.23,6.43-2.22,1.44-.78,4.06-4.05,3.9-6.4-3.12,3.47-3.7,3.08-5.18,4.37C83.21,79.36,82,81,81,80.8c-.08-.94,2.3-3,2-8.81a15.46,15.46,0,0,0-2.85,5.15" transform="translate(-30.08 -30.24)"/><path class="cls-1" d="M74.94,81.5a17.14,17.14,0,0,1-2.73,4.09,23.42,23.42,0,0,0,5.54,1.09c1.29,0,6-1.25,7.52-4.45-2.69,1.44-2.73,1.09-6.31,1.87-2.58.58-4.37,1.4-5.11,1.33.15-.35,2.18-1.17,3.51-2.89s1.05-3.9,2.3-5.42c-.85-.23-4.05,3.51-4.72,4.37" transform="translate(-30.08 -30.24)"/><path class="cls-1" d="M54.66,92.5l-.78-.39a17.13,17.13,0,0,1,13.46-5.58c8.5.47,7.92,2.46,12.48,2.14.51,0-.39.63-.39.63a15.77,15.77,0,0,1-9.95-.16c-5.46-1.87-9-3-14.82,3.35" transform="translate(-30.08 -30.24)"/><path class="cls-1" d="M68.11,92.5l.79-.39a17,17,0,0,0-13.42-5.58C46.94,87,47.53,89,43,88.68c-.51,0,.39.63.39.63a15.76,15.76,0,0,0,9.95-.16c5.5-1.87,9-3,14.82,3.35" transform="translate(-30.08 -30.24)"/><path class="cls-1" d="M128.39,66.2c0,8.15-4.4,12.06-13.37,12.06S101.6,74.35,101.6,66.2v-18h9.05v16c0,3,0,6.75,4.4,6.75s4.28-3.75,4.28-6.75v-16h9.05v18" transform="translate(-30.08 -30.24)"/><polygon class="cls-1" points="103.74 17.93 113 17.93 121.56 33.65 121.64 33.65 121.64 17.93 130.19 17.93 130.19 47.31 121.39 47.31 112.38 31.27 112.3 31.27 112.3 47.31 103.74 47.31 103.74 17.93"/><polygon class="cls-1" points="135.75 17.93 144.81 17.93 144.81 28.14 153.28 28.14 153.28 17.93 162.34 17.93 162.34 47.31 153.28 47.31 153.28 35.67 144.81 35.67 144.81 47.31 135.75 47.31 135.75 17.93"/><path class="cls-1" d="M215.58,59.12a4.71,4.71,0,0,0-4.73-4.32c-4.24,0-5.59,4.11-5.59,8.06s1.36,8.07,5.59,8.07c3,0,4.24-2.14,4.78-4.9h8.89c0,5.92-4.81,12.22-13.41,12.22-9.5,0-14.9-6.71-14.9-15.39,0-9.26,5.84-15.39,14.9-15.39,8.06,0,12.51,4.28,13.29,11.65h-8.8" transform="translate(-30.08 -30.24)"/><path class="cls-1" d="M237.35,55.17h4.24c3.46,0,4.49,1.07,4.49,2.92,0,2.63-2.31,2.92-4,2.92h-4.73ZM228.3,77.55h9.05V67.31h4.82c3.58,0,3.82,2.92,4.07,5.72a20.87,20.87,0,0,0,.74,4.52H256c-.83-1.36-.86-4.85-1-6.29-.33-3.66-1.85-6.38-4.32-7.33,3-1.11,4.41-4.32,4.41-7.36,0-5.56-4.45-8.39-9.59-8.39H228.3V77.55" transform="translate(-30.08 -30.24)"/><polygon class="cls-1" points="74.46 54.07 71.51 54.07 71.51 52.25 79.58 52.25 79.58 54.07 76.63 54.07 76.63 62.09 74.46 62.09 74.46 54.07"/><path class="cls-1" d="M110.33,82.49h2V86.2h0A2.51,2.51,0,0,1,114.41,85c2.08,0,2.61,1.17,2.61,2.94v4.38h-2v-4c0-1.17-.34-1.75-1.25-1.75-1.06,0-1.52.59-1.52,2v3.74h-2V82.49" transform="translate(-30.08 -30.24)"/><path class="cls-1" d="M119.82,89.24c.05,1.24.66,1.81,1.75,1.81a1.61,1.61,0,0,0,1.54-.92h1.72a3.21,3.21,0,0,1-3.34,2.4,3.48,3.48,0,0,1-3.64-3.75A3.58,3.58,0,0,1,121.5,85c2.43,0,3.6,2,3.46,4.23ZM123,88c-.18-1-.61-1.52-1.56-1.52A1.54,1.54,0,0,0,119.82,88H123" transform="translate(-30.08 -30.24)"/><path class="cls-1" d="M137.68,88.61c0,2.66-1.57,4-4.2,4s-4.19-1.28-4.19-4V82.49h2.16v6.12c0,1.08.28,2.14,2,2.14,1.54,0,2-.68,2-2.14V82.49h2.16v6.12" transform="translate(-30.08 -30.24)"/><polygon class="cls-1" points="109.04 52.25 111.19 52.25 115.3 58.85 115.33 58.85 115.33 52.25 117.36 52.25 117.36 62.09 115.19 62.09 111.1 55.5 111.07 55.5 111.07 62.09 109.04 62.09 109.04 52.25"/><path class="cls-1" d="M154.32,84.17h2.37c1,0,1.49.42,1.49,1.36s-.53,1.41-1.49,1.41h-2.37Zm-2.17,8.16h2.17V88.48h2.16c1.09,0,1.49.46,1.64,1.49a10.88,10.88,0,0,0,.34,2.36h2.17a5.39,5.39,0,0,1-.41-2.33c-.07-1-.37-2-1.43-2.3v0a2.42,2.42,0,0,0,1.56-2.47,2.7,2.7,0,0,0-2.88-2.72h-5.31v9.84" transform="translate(-30.08 -30.24)"/><path class="cls-1" d="M163.27,88a1.54,1.54,0,0,1,1.63-1.52c1,0,1.38.52,1.56,1.52Zm5.14,1.24c.14-2.19-1-4.23-3.46-4.23a3.57,3.57,0,0,0-3.64,3.76,3.48,3.48,0,0,0,3.64,3.75,3.21,3.21,0,0,0,3.34-2.4h-1.72A1.61,1.61,0,0,1,165,91c-1.09,0-1.7-.56-1.75-1.81h5.14" transform="translate(-30.08 -30.24)"/><path class="cls-1" d="M169.7,86.51h-1.17V85.2h1.17v-.55a2.09,2.09,0,0,1,2.38-2.17c.34,0,.7,0,1,.06V84a5.93,5.93,0,0,0-.72,0c-.52,0-.74.22-.74.81v.43H173v1.31h-1.35v5.82h-2V86.51" transform="translate(-30.08 -30.24)"/><path class="cls-1" d="M180.3,92.33h-1.86v-1h0a2.55,2.55,0,0,1-2.18,1.19c-2.08,0-2.61-1.17-2.61-2.94V85.2h2v4c0,1.17.34,1.75,1.25,1.75,1.06,0,1.52-.59,1.52-2V85.2h2v7.13" transform="translate(-30.08 -30.24)"/><path class="cls-1" d="M184.81,90.65c-1.2,0-1.58-1.12-1.58-2.14s.48-2,1.58-2c1.27,0,1.67,1,1.67,2.19a1.75,1.75,0,0,1-1.67,2m3.53-5.45h-1.86v1h0A2.22,2.22,0,0,0,184.33,85c-2,0-3.06,1.68-3.06,3.53s.91,3.59,3,3.59a2.41,2.41,0,0,0,2.14-1.1h0V92c0,1-.48,1.76-1.57,1.76a1.33,1.33,0,0,1-1.46-1H181.5c.09,1.63,1.74,2.29,3.14,2.29,3.28,0,3.69-2,3.69-3.16V85.2" transform="translate(-30.08 -30.24)"/><path class="cls-1" d="M191.28,88a1.54,1.54,0,0,1,1.63-1.52c1,0,1.38.52,1.56,1.52Zm5.14,1.24c.14-2.19-1-4.23-3.46-4.23a3.57,3.57,0,0,0-3.64,3.76A3.48,3.48,0,0,0,193,92.53a3.21,3.21,0,0,0,3.34-2.4h-1.72A1.61,1.61,0,0,1,193,91c-1.09,0-1.7-.56-1.75-1.81h5.14" transform="translate(-30.08 -30.24)"/><path class="cls-1" d="M198.94,88a1.54,1.54,0,0,1,1.63-1.52c1,0,1.38.52,1.56,1.52Zm5.14,1.24c.14-2.19-1-4.23-3.46-4.23A3.57,3.57,0,0,0,197,88.78a3.48,3.48,0,0,0,3.64,3.75,3.21,3.21,0,0,0,3.34-2.4h-1.72a1.61,1.61,0,0,1-1.55.92c-1.09,0-1.69-.56-1.75-1.81h5.14" transform="translate(-30.08 -30.24)"/><path class="cls-1" d="M213,84.91h0l1.24,3.61h-2.55Zm-4.81,7.42h2.19l.77-2.19h3.68l.74,2.19h2.25l-3.68-9.84H212Z" transform="translate(-30.08 -30.24)"/><path class="cls-1" d="M221.54,90.65c-1.2,0-1.59-1.12-1.59-2.14s.48-2,1.59-2c1.27,0,1.67,1,1.67,2.19a1.76,1.76,0,0,1-1.67,2m3.53-5.45h-1.86v1h0A2.22,2.22,0,0,0,221.06,85c-2,0-3.06,1.68-3.06,3.53s.91,3.59,3,3.59a2.41,2.41,0,0,0,2.14-1.1h0V92c0,1-.48,1.76-1.57,1.76a1.33,1.33,0,0,1-1.46-1h-1.94c.1,1.63,1.74,2.29,3.14,2.29,3.28,0,3.69-2,3.69-3.16V85.2" transform="translate(-30.08 -30.24)"/><path class="cls-1" d="M228,88a1.54,1.54,0,0,1,1.63-1.52c1,0,1.38.52,1.56,1.52Zm5.14,1.24c.14-2.19-1-4.23-3.46-4.23A3.57,3.57,0,0,0,226,88.78a3.48,3.48,0,0,0,3.64,3.75,3.2,3.2,0,0,0,3.33-2.4H231.3a1.61,1.61,0,0,1-1.55.92c-1.09,0-1.7-.56-1.75-1.81h5.14" transform="translate(-30.08 -30.24)"/><path class="cls-1" d="M234,85.2h1.86v1h0A2.54,2.54,0,0,1,238.08,85c2.08,0,2.61,1.17,2.61,2.94v4.38h-2v-4c0-1.17-.34-1.75-1.25-1.75-1.06,0-1.52.59-1.52,2v3.74h-2V85.2" transform="translate(-30.08 -30.24)"/><path class="cls-1" d="M246.73,87.71a1.33,1.33,0,0,0-1.45-1.23c-1.25,0-1.67,1.27-1.67,2.32S244,91,245.24,91a1.51,1.51,0,0,0,1.56-1.45h1.89a3.19,3.19,0,0,1-3.43,2.92,3.46,3.46,0,0,1-3.6-3.65A3.53,3.53,0,0,1,245.29,85c1.68,0,3.23.88,3.35,2.7h-1.92" transform="translate(-30.08 -30.24)"/><path class="cls-1" d="M253.06,93.23a2.24,2.24,0,0,1-2.45,1.61,11.79,11.79,0,0,1-1.2-.07V93.16a9.81,9.81,0,0,0,1.14.07.92.92,0,0,0,.67-1.34l-2.51-6.69h2.1l1.61,4.88h0L254,85.2h2l-3,8" transform="translate(-30.08 -30.24)"/><path class="cls-1" d="M101.73,30.39h2.16v5.94a2.31,2.31,0,1,0,4.62,0V30.39h2.16v6c0,2.49-1.42,4.19-4.46,4.19s-4.48-1.71-4.48-4.17Z" transform="translate(-30.08 -30.24)"/><path class="cls-1" d="M113.13,37.37a4.39,4.39,0,0,0,3.18,1.35c1.17,0,1.74-.56,1.74-1.12,0-.75-.87-1-2-1.28-1.63-.37-3.73-.82-3.73-3.06,0-1.67,1.44-3,3.79-3a5.57,5.57,0,0,1,3.9,1.39L118.8,33.2a4.27,4.27,0,0,0-2.86-1.09c-1,0-1.47.42-1.47,1s.84.89,2,1.16c1.65.38,3.75.87,3.75,3.09,0,1.83-1.31,3.21-4,3.21A5.7,5.7,0,0,1,112,39Z" transform="translate(-30.08 -30.24)"/><path class="cls-1" d="M127.92,38.67h-4.47l-.63,1.73h-2.34l3.87-10H127l3.85,10h-2.33ZM124,36.83h3.31l-1.65-4.59Z" transform="translate(-30.08 -30.24)"/><path class="cls-1" d="M136,34.82h-1.2V33.15H136v-.39a2.34,2.34,0,0,1,2.45-2.52,3.08,3.08,0,0,1,1.38.3l-.39,1.35a1.17,1.17,0,0,0-.61-.15c-.54,0-.9.36-.9,1.05v.36h1.47v1.66h-1.47V40.4H136Z" transform="translate(-30.08 -30.24)"/><path class="cls-1" d="M140,36.77a3.83,3.83,0,1,1,3.82,3.81A3.67,3.67,0,0,1,140,36.77Zm5.68,0a1.87,1.87,0,1,0-3.7,0,1.87,1.87,0,1,0,3.7,0Z" transform="translate(-30.08 -30.24)"/><path class="cls-1" d="M149.12,33.15H151v1A3.1,3.1,0,0,1,153.33,33v1.86a2.34,2.34,0,0,0-2.31.77V40.4h-1.91Z" transform="translate(-30.08 -30.24)"/></svg>